<svg width="25" height="17" viewBox="0 0 25 17" fill="none" xmlns="http://www.w3.org/2000/svg">
<path d="M15.233 0.00281065C15.1656 0.00652422 14.9089 0.017665 14.6615 0.0288057C13.4757 0.080796 12.6458 0.229339 12.1699 0.470721C11.9751 0.570988 11.8533 0.680539 11.8252 0.784522C11.814 0.823514 11.7915 0.955347 11.7765 1.07789C11.7278 1.43997 11.6378 1.73705 11.4992 1.97843C11.089 2.70444 10.3602 3.09993 9.23799 3.2132C8.86329 3.25219 8.21509 3.27076 8.14951 3.24477C8.1083 3.22805 8.09519 3.20206 8.05959 3.06651C8.02025 2.91797 8.01088 2.90126 7.91534 2.81585C7.85913 2.76571 7.76546 2.70072 7.70551 2.67102L7.59873 2.61902H6.53087C5.30002 2.61902 4.6949 2.65245 4.13287 2.75271C3.93428 2.78614 3.86309 2.81956 3.7357 2.93282C3.62142 3.03495 3.60643 3.07208 3.58207 3.29675C3.56896 3.4193 3.55397 3.47872 3.53337 3.49543C3.50339 3.51586 3.38162 3.53442 3.01817 3.57527C2.20323 3.66811 1.65243 3.86864 1.46322 4.14159C1.36018 4.29199 1.26463 4.63178 1.20094 5.06999C1.11288 5.70129 0.85435 9.3443 0.893692 9.40742C0.904933 9.42789 9.32604 9.42972 9.33728 9.40931C9.34289 9.40187 9.36538 9.29233 9.38786 9.1642C9.7682 6.96945 11.3587 5.12754 13.4907 4.41083C14.4948 4.07289 15.6189 3.99862 16.6662 4.19915C17.9588 4.44796 19.1784 5.1294 20.0533 6.09122C20.8364 6.95465 21.3479 7.97401 21.5558 9.08621C21.5821 9.22178 21.6064 9.34247 21.612 9.35173C21.6233 9.36842 24.5477 9.37775 24.5646 9.36105C24.5683 9.35734 24.5627 9.09182 24.5496 8.77056C24.4934 7.2647 24.3547 6.05037 24.1505 5.27238C23.9632 4.55751 23.819 4.34398 23.3075 4.02462C22.8372 3.73124 22.2958 3.52143 21.4959 3.32832C21.05 3.21877 20.8289 3.13892 20.6042 3.00338C20.4262 2.89754 20.2088 2.70258 20.0815 2.53733C19.8304 2.20867 19.6561 1.67578 19.6543 1.23015C19.6524 1.0129 19.6225 0.827225 19.5756 0.758524C19.5513 0.723248 19.482 0.6564 19.4202 0.609981C19.0005 0.290613 18.0787 0.0975068 16.6755 0.0306625C16.2297 0.00838101 15.4091 -0.00647328 15.233 0.00281065ZM22.2828 4.56494C22.62 4.71719 22.8092 5.10341 22.7193 5.45063C22.5675 6.03366 21.8481 6.23234 21.4191 5.80899C21.0144 5.40978 21.1755 4.7302 21.7189 4.53709C21.8687 4.4851 22.1366 4.4981 22.2828 4.56494Z" fill="white"/>
<path d="M15.2331 5.10853C14.3282 5.18466 13.6875 5.36477 13.0187 5.73055C11.6829 6.46027 10.7256 7.74514 10.4295 9.20463C10.3509 9.6001 10.3359 9.76533 10.3359 10.2221C10.3359 10.7791 10.3827 11.132 10.5232 11.6277C11.0553 13.5124 12.6777 14.9569 14.6242 15.28C15.1787 15.3729 15.812 15.3729 16.3665 15.28C18.313 14.9569 19.9354 13.5124 20.4675 11.6277C20.608 11.132 20.6548 10.7791 20.6548 10.2221C20.6548 9.54624 20.563 9.03008 20.3345 8.42106C19.866 7.17511 18.8469 6.10191 17.6161 5.55415C17.1402 5.34248 16.5763 5.19022 16.0761 5.13638C15.8757 5.1141 15.3605 5.09738 15.2331 5.10853Z" fill="white"/>
<path d="M21.6404 10.758C21.6404 10.8063 21.5786 11.2278 21.5468 11.3949C21.2002 13.2145 19.9562 14.8429 18.2702 15.6822C17.3784 16.1241 16.4847 16.3339 15.4862 16.3358C14.4596 16.3358 13.5715 16.1278 12.6704 15.6729C10.9543 14.8095 9.7441 13.2053 9.39938 11.3373C9.37503 11.1999 9.34879 11.0272 9.34131 10.9566C9.33381 10.8843 9.32444 10.8118 9.32069 10.7932C9.31133 10.7636 9.09214 10.7617 5.06986 10.7617H0.830268L0.817154 11.0532C0.807786 11.2147 0.802166 11.885 0.800293 12.5442C0.800293 13.4949 0.805913 13.8402 0.832141 14.2246C0.914573 15.4631 0.987637 16.1 1.08318 16.4249C1.18622 16.7777 1.29675 16.8687 1.73514 16.9615L1.92061 17.0005H12.0166H22.1107L22.4329 16.9355C23.5064 16.7164 24.1583 16.4323 24.3307 16.1055C24.3757 16.0201 24.4094 15.762 24.4487 15.1994C24.5031 14.4196 24.5237 13.9962 24.5443 13.2776C24.5555 12.9304 24.5724 12.379 24.5817 12.0522C24.5911 11.7254 24.6004 11.2964 24.6004 11.0996V10.7432H23.1204C22.3074 10.7432 21.6404 10.7505 21.6404 10.758Z" fill="white"/>
</svg>
