<svg width="64" height="64" viewBox="0 0 64 64" fill="none" xmlns="http://www.w3.org/2000/svg">
<path d="M32 7.17395C18.311 7.17395 7.17395 18.311 7.17395 32C7.17395 45.689 18.311 56.826 32 56.826C45.689 56.826 56.826 45.689 56.826 32C56.826 18.311 45.689 7.17395 32 7.17395ZM38.174 32.874H34.1349C34.1349 39.327 34.1349 47.2719 34.1349 47.2719H28.15C28.15 47.2719 28.15 39.404 28.15 32.874H25.305V27.7859H28.15V24.495C28.15 22.138 29.2699 18.455 34.1899 18.455L38.623 18.472V23.4109C38.623 23.4109 35.9279 23.4109 35.4039 23.4109C34.8799 23.4109 34.136 23.673 34.136 24.797V27.787H38.6959L38.174 32.874Z" fill="#432818"/>
</svg>
