<svg width="20" height="23" viewBox="0 0 20 23" fill="none" xmlns="http://www.w3.org/2000/svg">
<path d="M9.52565 0.0184784C9.07053 0.0580117 8.58258 0.164033 8.17207 0.31318C7.06481 0.7157 6.32117 1.43808 6.07486 2.35273L6.01855 2.55939V7.18657C6.01855 11.5927 6.0209 11.8209 6.06078 11.9755C6.40093 13.2513 7.8319 14.2396 9.56078 14.3924C10.3279 14.4589 11.1349 14.3546 11.848 14.0941C12.9576 13.6879 13.6989 12.9638 13.9406 12.0509L13.9945 11.8497V7.22251C13.9945 2.82354 13.9922 2.58814 13.9523 2.4336C13.6802 1.39854 12.648 0.518034 11.292 0.162236C10.7595 0.0220724 10.1004 -0.0318366 9.52565 0.0184784Z" fill="white"/>
<path d="M0.707605 8.6167C0.336959 8.69218 0.0929892 8.89706 0.0226132 9.18994C0.00619215 9.25827 0.00150041 9.75058 0.00853802 10.6976C0.0155756 11.8621 0.0249591 12.1441 0.0578013 12.3526C0.207937 13.3194 0.473019 14.0202 0.975037 14.7785C1.40667 15.4273 1.86646 15.9106 2.54677 16.4317C3.78773 17.3806 5.39934 18.0598 7.28542 18.4264C7.55755 18.4785 7.82732 18.5271 7.89061 18.5342L8.00089 18.5468V20.0814V21.616H6.45967C4.77769 21.616 4.71669 21.6196 4.46334 21.7184C4.30147 21.7813 4.09973 21.9467 4.05046 22.0581C3.92613 22.3366 4.13491 22.6996 4.52668 22.89C4.7683 23.0086 4.36481 22.9997 10.0184 22.9997C15.5945 22.9997 15.2614 23.005 15.5288 22.9026C15.6789 22.8434 15.8666 22.6834 15.9347 22.5541C15.9792 22.466 15.9886 22.4193 15.9886 22.227C15.9886 22.0113 15.9862 21.997 15.9135 21.882C15.829 21.7454 15.6789 21.6196 15.5264 21.5603C15.3036 21.474 15.2919 21.4722 13.6029 21.4722H12.0124V19.9376C12.0124 18.4911 12.0147 18.4012 12.0546 18.3922C12.0756 18.3886 12.132 18.3797 12.1765 18.3724C13.129 18.2341 14.3676 17.8855 15.2567 17.5027C17.809 16.4084 19.4276 14.6869 19.8804 12.5862C19.993 12.0687 20 11.9537 20 10.5198V9.15399L19.946 9.04981C19.7983 8.77124 19.5003 8.61313 19.0852 8.59336C18.7403 8.57539 18.4752 8.65087 18.2641 8.82516C18.189 8.88624 18.1163 8.96896 18.0858 9.03183L18.0295 9.13602L18.0154 10.5467C18.0013 11.871 17.9896 12.0741 17.9239 12.4335C17.6893 13.7004 16.9457 14.8234 15.7821 15.6573C14.5201 16.5647 12.8991 17.1128 10.9684 17.2889C10.6259 17.3195 9.38731 17.3195 9.04484 17.2889C7.48952 17.147 6.10545 16.7552 4.97474 16.1353C3.37251 15.2565 2.36848 13.9753 2.08932 12.4514C2.02363 12.1028 2.01191 11.8639 1.99783 10.5467L1.98375 9.13602L1.92746 9.03183C1.82423 8.8324 1.54977 8.65802 1.26592 8.60776C1.12047 8.58075 0.855398 8.58621 0.707605 8.6167Z" fill="white"/>
</svg>
