<svg width="27" height="27" viewBox="0 0 27 27" fill="none" xmlns="http://www.w3.org/2000/svg">
<path d="M1.85976 0.0231284C1.37877 0.149691 1.01641 0.866879 0.804776 2.11985C0.57069 3.50782 0.500144 5.40205 0.545037 9.33392C0.56107 10.6797 0.583517 11.8757 0.593137 11.9917C0.641236 12.5043 0.734229 12.8524 1.00679 13.5632C1.24088 14.1686 1.26012 14.3142 1.23767 15.1136C1.16071 17.5267 1.00679 18.7692 0.448837 21.5472C0.05442 23.5132 0.0191468 23.7389 0.0191468 24.4687C0.0159401 25.1606 0.0864865 25.5361 0.304539 26.0444C0.432804 26.3355 0.557863 26.4832 0.814395 26.6519C1.17354 26.8861 1.52627 26.9831 2.03613 26.9852C2.70632 26.9894 3.32521 26.7574 3.61701 26.3967C3.73566 26.2448 3.8543 25.9411 3.9505 25.5339C4.00502 25.2935 4.01784 25.1416 4.01784 24.7113C4.02105 24.0595 3.99219 23.8612 3.64266 22.0324C3.29955 20.2478 3.14563 19.132 3.03019 17.6027C2.97568 16.8665 2.91796 15.4448 2.91796 14.8521C2.91796 14.2614 2.94682 14.2003 3.59777 13.27C4.17497 12.441 4.3353 12.1816 4.53411 11.7281C4.67841 11.4074 4.79706 11.0235 4.85798 10.6734C4.94456 10.2051 4.91891 8.58931 4.80988 7.27728C4.55656 4.30939 3.98898 1.98696 3.23863 0.837348C2.841 0.231956 2.29587 -0.090778 1.85976 0.0231284Z" fill="white"/>
<path d="M22.0649 5.20177C21.6352 5.26083 21.1606 5.44646 20.7213 5.72489C19.4867 6.50325 18.5472 7.98825 18.265 9.5977C17.9796 11.2304 18.2682 12.0615 19.3809 12.7955C19.7529 13.0402 20.0896 13.2068 20.8175 13.5085C21.3145 13.7152 21.5486 13.8439 21.6287 13.9578C21.6833 14.0316 21.6865 14.0949 21.664 14.7868C21.5967 17.1261 21.4428 18.4001 20.8592 21.4629C20.7116 22.2392 20.5673 23.0323 20.5385 23.2243C20.3846 24.3085 20.4038 25.0025 20.6026 25.6648C20.7662 26.1964 20.9329 26.4516 21.2568 26.6646C21.5999 26.8882 21.959 26.9832 22.4945 26.9832C23.1166 26.9874 23.7067 26.7786 24.0081 26.4453C24.3127 26.1141 24.4923 25.2619 24.4538 24.3211C24.4282 23.6651 24.3672 23.1968 24.069 21.4207C23.6842 19.1384 23.5752 18.3094 23.4726 17.0016C23.4565 16.7632 23.4341 16.4932 23.4245 16.4004C23.4149 16.3076 23.3924 15.7444 23.3764 15.1496C23.3507 14.3733 23.3507 14.0443 23.3764 13.9831C23.4469 13.8165 23.6874 13.6836 24.4185 13.4157C25.2587 13.1098 25.7942 12.8419 26.1309 12.5635C26.7915 12.0193 27.0352 11.4118 26.9871 10.4415C26.9293 9.25599 26.6119 8.22239 26.0219 7.30903C25.0855 5.85778 23.4758 4.99927 22.0649 5.20177Z" fill="white"/>
<path d="M9.78326 5.61324C9.39846 6.02879 8.89502 9.83199 9.01046 11.4541C9.04252 11.9266 9.07459 12.0911 9.174 12.2852C9.32471 12.5826 9.52352 12.7598 10.229 13.2365C10.9729 13.7386 11.191 13.96 11.2872 14.3018C11.3545 14.5401 11.2968 16.2297 11.1749 17.5186C11.0531 18.7842 10.9088 19.687 10.5176 21.558C10.152 23.3109 10.1167 23.5514 10.1167 24.3635C10.12 25.1545 10.1745 25.4772 10.4246 26.1185C10.6491 26.7007 11.3321 27.0339 12.2139 26.9918C12.7013 26.9686 13.1438 26.8336 13.4517 26.6163C13.6601 26.4686 13.7659 26.3315 13.8653 26.0721C14.0802 25.511 14.1571 24.9836 14.1315 24.2264C14.1058 23.5029 14.0673 23.2497 13.7242 21.4314C13.2047 18.6893 13.0284 17.0967 13.0091 14.9979C13.0027 14.3524 13.0091 14.2575 13.0604 14.1499C13.1631 13.9326 13.3266 13.7786 13.7627 13.496C14.4617 13.0404 14.7087 12.8336 14.962 12.4793C15.2346 12.0975 15.2794 11.8464 15.2762 10.6947C15.273 9.37004 15.0903 7.7416 14.7952 6.3916C14.5195 5.13652 14.4008 5.26098 14.2854 6.9084C14.2597 7.2902 14.2245 7.8323 14.2052 8.11074C14.1283 9.22027 14.0385 9.88684 13.9134 10.218C13.8429 10.4121 13.7819 10.4838 13.6922 10.4838C13.442 10.4838 13.3202 9.81512 13.2432 8.03691C13.1566 6.0077 13.1021 5.54785 12.9514 5.54785C12.8552 5.54785 12.7847 5.96129 12.7334 6.81348C12.5987 8.98824 12.5762 9.27723 12.4865 9.74551C12.3774 10.3214 12.2267 10.5618 12.0311 10.4711C11.8868 10.4057 11.7746 10.0767 11.704 9.50293C11.688 9.36371 11.6591 8.63809 11.6399 7.88926C11.595 6.03723 11.5533 5.54785 11.4315 5.54785C11.2904 5.54785 11.207 6.03934 11.0787 7.64668C10.9152 9.64426 10.7966 10.3214 10.5785 10.4648L10.5112 10.5091L10.4342 10.4606C10.1841 10.3066 10.0975 9.59785 10.0366 7.21426C10.0077 6.09629 9.97566 5.62168 9.92114 5.56684C9.88908 5.53098 9.84418 5.54785 9.78326 5.61324Z" fill="white"/>
</svg>
