<svg width="27" height="27" viewBox="0 0 27 27" fill="none" xmlns="http://www.w3.org/2000/svg">
<path d="M8.64603 4.22414C9.01524 4.22414 9.31453 3.92486 9.31453 3.55565V0.668493C9.31453 0.299285 9.01524 0 8.64603 0C8.27682 0 7.97754 0.299285 7.97754 0.668493V3.55565C7.97754 3.92486 8.27682 4.22414 8.64603 4.22414Z" fill="white"/>
<path d="M8.64603 13.0684C8.27682 13.0684 7.97754 13.3676 7.97754 13.7369V16.624C7.97754 16.9932 8.27682 17.2925 8.64603 17.2925C9.01524 17.2925 9.31453 16.9932 9.31453 16.624V13.7369C9.31453 13.3676 9.01518 13.0684 8.64603 13.0684V13.0684Z" fill="white"/>
<path d="M3.47759 2.53246C3.21655 2.27141 2.79326 2.27141 2.53221 2.53246C2.27116 2.7935 2.27116 3.21679 2.53221 3.47784L4.57372 5.51935C4.70428 5.64991 4.87535 5.71515 5.04642 5.71515C5.21748 5.71515 5.38862 5.64991 5.51911 5.51935C5.78016 5.25831 5.78016 4.83501 5.51911 4.57397L3.47759 2.53246V2.53246Z" fill="white"/>
<path d="M4.22414 8.64628C4.22414 8.27707 3.92486 7.97778 3.55565 7.97778H0.668493C0.299285 7.97778 0 8.27707 0 8.64628C0 9.01549 0.299285 9.31477 0.668493 9.31477H3.55565C3.92486 9.31477 4.22414 9.01549 4.22414 8.64628Z" fill="white"/>
<path d="M13.0684 8.64628C13.0684 9.01549 13.3676 9.31477 13.7369 9.31477H16.624C16.9932 9.31477 17.2925 9.01549 17.2925 8.64628C17.2925 8.27707 16.9932 7.97778 16.624 7.97778H13.7369C13.3676 7.97778 13.0684 8.27707 13.0684 8.64628V8.64628Z" fill="white"/>
<path d="M4.57382 11.7732L2.53224 13.8147C2.27119 14.0757 2.27112 14.499 2.53224 14.7601C2.66279 14.8906 2.83386 14.9559 3.00493 14.9559C3.176 14.9559 3.34713 14.8905 3.47762 14.7601L5.5192 12.7185C5.78025 12.4575 5.78031 12.0342 5.5192 11.7732C5.25809 11.5121 4.83486 11.5122 4.57382 11.7732Z" fill="white"/>
<path d="M12.2457 5.71515C12.4168 5.71515 12.5879 5.64984 12.7184 5.51935L14.7599 3.47784C15.021 3.21679 15.021 2.7935 14.7599 2.53246C14.4988 2.27141 14.0756 2.27141 13.8145 2.53246L11.773 4.57397C11.5119 4.83501 11.5118 5.25831 11.773 5.51935C11.9036 5.64991 12.0747 5.71515 12.2457 5.71515Z" fill="white"/>
<path d="M26.8044 24.0625L9.64551 6.90357C8.88958 6.1477 7.65975 6.1477 6.90381 6.90357C6.14795 7.65944 6.14795 8.8894 6.90381 9.64526L24.0627 26.8042C24.1933 26.9347 24.3643 27 24.5354 27C24.7065 27 24.8776 26.9347 25.0081 26.8042L26.8044 25.0079C27.0655 24.7468 27.0655 24.3235 26.8044 24.0625V24.0625ZM7.84926 7.84902C7.96652 7.7317 8.12061 7.67307 8.27469 7.67307C8.42878 7.67307 8.5828 7.7317 8.70012 7.84902L11.3945 10.5434L10.5436 11.3942L7.84926 8.69988C7.61462 8.46531 7.61462 8.0836 7.84926 7.84902V7.84902ZM24.5354 25.386L11.489 12.3396L12.3399 11.4888L25.3863 24.5352L24.5354 25.386Z" fill="white"/>
</svg>
